<svg width="61" height="43" viewBox="0 0 61 43" fill="none" xmlns="http://www.w3.org/2000/svg">
<path id="S" d="M35.9805 34.5391C35.9805 33.4323 35.5898 32.5859 34.8086 32C34.0273 31.401 32.6211 30.776 30.5898 30.125C28.5586 29.4609 26.9505 28.8099 25.7656 28.1719C22.5365 26.4271 20.9219 24.0768 20.9219 21.1211C20.9219 19.5846 21.3516 18.2174 22.2109 17.0195C23.0833 15.8086 24.3268 14.8646 25.9414 14.1875C27.569 13.5104 29.3919 13.1719 31.4102 13.1719C33.4414 13.1719 35.2513 13.543 36.8398 14.2852C38.4284 15.0143 39.6589 16.0495 40.5312 17.3906C41.4167 18.7318 41.8594 20.2552 41.8594 21.9609H36C36 20.6589 35.5898 19.6497 34.7695 18.9336C33.9492 18.2044 32.7969 17.8398 31.3125 17.8398C29.8802 17.8398 28.7669 18.1458 27.9727 18.7578C27.1784 19.3568 26.7812 20.151 26.7812 21.1406C26.7812 22.0651 27.2435 22.8398 28.168 23.4648C29.1055 24.0898 30.4792 24.6758 32.2891 25.2227C35.6224 26.2253 38.0508 27.4688 39.5742 28.9531C41.0977 30.4375 41.8594 32.2865 41.8594 34.5C41.8594 36.9609 40.9284 38.8945 39.0664 40.3008C37.2044 41.694 34.6979 42.3906 31.5469 42.3906C29.3594 42.3906 27.3672 41.9935 25.5703 41.1992C23.7734 40.3919 22.3997 39.2917 21.4492 37.8984C20.5117 36.5052 20.043 34.8906 20.043 33.0547H25.9219C25.9219 36.1927 27.7969 37.7617 31.5469 37.7617C32.9401 37.7617 34.0273 37.4818 34.8086 36.9219C35.5898 36.349 35.9805 35.5547 35.9805 34.5391Z" fill="#05466B"/>
<path id="HM" d="M1.04828 24.64C2.27495 24.4 3.10161 24.0533 3.52828 23.6C3.95495 23.12 4.16828 22.32 4.16828 21.2L4.20828 4.4C4.20828 3.54667 4.10161 2.97333 3.88828 2.68C3.70161 2.38667 3.31495 2.24 2.72828 2.24L1.36828 2.32L1.28828 2.16L1.56828 0.399998C1.91495 0.399998 2.18161 0.413331 2.36828 0.439998C3.96828 0.493332 5.18161 0.519999 6.00828 0.519999C7.12828 0.519999 8.55495 0.399999 10.2883 0.159999L10.1283 1.96C9.32828 2.09333 8.75495 2.25333 8.40828 2.44C8.08828 2.62667 7.86162 2.94667 7.72828 3.4C7.62162 3.82667 7.54162 4.54667 7.48828 5.56L7.24828 12.04L13.9683 12.08C15.6483 12.08 17.6216 11.9467 19.8883 11.68L19.9283 4.4C19.9283 3.54667 19.8216 2.97333 19.6083 2.68C19.4216 2.38667 19.0349 2.24 18.4483 2.24C18.0749 2.24 17.6216 2.26667 17.0883 2.32L17.0083 2.16L17.2883 0.399998C17.5816 0.426665 18.1149 0.453332 18.8883 0.48C19.6616 0.506666 20.4349 0.519999 21.2083 0.519999C22.4883 0.519999 24.0883 0.399999 26.0083 0.159999L25.8483 1.96C24.8616 2.09333 24.1949 2.32 23.8483 2.64C23.5016 2.93333 23.3149 3.46667 23.2883 4.24C23.1283 7.25333 22.9949 10.4933 22.8883 13.96C22.7816 17.4 22.7283 20 22.7283 21.76C22.7283 22.7467 22.8483 23.4133 23.0883 23.76C23.3283 24.08 23.7949 24.24 24.4883 24.24C24.8083 24.24 25.4083 24.2 26.2883 24.12L26.3683 24.28L26.0083 26.12C25.6349 26.12 25.3416 26.1067 25.1283 26.08C23.3683 26.0267 22.0216 26 21.0883 26L16.4883 26.08L16.8483 24.28C17.7283 24.2533 18.3683 24.1333 18.7683 23.92C19.1949 23.7067 19.4883 23.3067 19.6483 22.72C19.8083 22.1333 19.8883 21.2267 19.8883 20V13.96L13.8083 13.92C13.1416 13.9467 12.2083 14 11.0083 14.08C9.80828 14.1333 8.52828 14.2267 7.16828 14.36L7.00828 21.52C7.00828 22.6133 7.12828 23.3467 7.36828 23.72C7.60828 24.0667 8.07495 24.24 8.76828 24.24C9.08828 24.24 9.68828 24.2 10.5683 24.12L10.6483 24.28L10.2883 26.12C10.0483 26.0933 9.59495 26.0667 8.92828 26.04C8.26162 26.0133 7.58162 26 6.88828 26C5.66161 26 4.34161 26.0533 2.92828 26.16C1.54161 26.2667 0.834948 26.3733 0.808281 26.48L1.04828 24.64ZM36.8445 5.2H36.6445C36.4845 6.96 36.2045 10.2667 35.8045 15.12C35.4045 19.9467 35.2045 22.5733 35.2045 23C35.2045 23.8267 35.6179 24.24 36.4445 24.24L38.0845 24.2L38.1645 24.36L37.8045 26.16C37.5112 26.1333 36.9779 26.0933 36.2045 26.04C35.4579 26.0133 34.6979 26 33.9245 26C33.2579 26 32.5645 26.04 31.8445 26.12C31.1512 26.2267 30.6979 26.2933 30.4845 26.32L30.6845 24.48C31.5379 24.3733 32.1512 24.1067 32.5245 23.68C32.8979 23.2267 33.1379 22.4667 33.2445 21.4C33.5112 18.8933 33.8579 15.52 34.2845 11.28C34.7379 7.01333 34.9645 4.62667 34.9645 4.12C34.9645 3.42667 34.6845 2.90667 34.1245 2.56C33.5912 2.21333 32.7245 2 31.5245 1.92L31.4045 1.72L31.7245 0.319999C32.0712 0.346666 32.7512 0.386665 33.7645 0.439998C34.7779 0.493332 35.5512 0.519999 36.0845 0.519999C36.5645 0.519999 37.0845 0.506666 37.6445 0.48C38.2312 0.426665 38.6179 0.386665 38.8045 0.359999C39.8712 3.8 40.8979 7 41.8845 9.96C42.8979 12.8933 43.7245 15.2267 44.3645 16.96C45.0045 18.6933 45.4045 19.7733 45.5645 20.2H45.7645C46.1379 19.2133 46.9912 16.8667 48.3245 13.16C49.6579 9.45333 51.1112 5.21333 52.6845 0.439998C52.6845 0.413331 53.0445 0.426665 53.7645 0.48L55.3245 0.519999C55.8312 0.519999 56.5912 0.493332 57.6045 0.439998C58.6179 0.359999 59.2979 0.306666 59.6445 0.28L59.7245 0.439998L59.5245 1.92C58.3779 2.05333 57.5645 2.29333 57.0845 2.64C56.6045 2.96 56.3645 3.45333 56.3645 4.12C56.3645 4.70667 56.4845 6.89333 56.7245 10.68C56.9645 14.44 57.1912 17.6933 57.4045 20.44C57.5379 21.5333 57.6712 22.3467 57.8045 22.88C57.9379 23.3867 58.1245 23.7467 58.3645 23.96C58.6045 24.1467 58.9379 24.24 59.3645 24.24C59.6045 24.24 59.8312 24.2267 60.0445 24.2C60.2579 24.1733 60.4045 24.16 60.4845 24.16L60.5645 24.32L60.2045 26.12C59.9379 26.0933 59.4312 26.0667 58.6845 26.04C57.9645 26.0133 57.2045 26 56.4045 26C55.6845 26 54.8712 26.04 53.9645 26.12C53.0845 26.2267 52.5112 26.2933 52.2445 26.32L52.4045 24.48C53.2312 24.3733 53.8312 24.16 54.2045 23.84C54.5779 23.52 54.7645 23.0667 54.7645 22.48C54.7645 21.92 54.5645 19.32 54.1645 14.68C53.7912 10.04 53.5379 6.88 53.4045 5.2H53.2045L45.4845 26.48L44.5245 26.76L36.8445 5.2Z" fill="#808080"/>
</svg>
